<svg xmlns="http://www.w3.org/2000/svg" viewBox="0 0 150 150"><defs><style>.cls-1{fill:#d81324;}.cls-2{fill:none;}</style></defs><g id="Layer_2" data-name="Layer 2"><g id="Layer_1-2" data-name="Layer 1"><path class="cls-1" d="M104.05,31.56c-.85.92-1.45,1.61-2.1,2.26C95.73,40,89.53,46.29,83.24,52.45c-1.34,1.31-1.45,2.15-.06,3.51Q92,64.55,100.6,73.33c1.48,1.5,2.45,1.21,3.79-.14,6.06-6.14,12.21-12.19,18.28-18.32a24.91,24.91,0,0,1,1.92-2.4A21.85,21.85,0,0,1,128,64.08c.88,18.8-10.28,34.33-28.41,39.47a35.67,35.67,0,0,1-21.93-.89c-1.91-.66-3-.17-4.24,1.11q-16.83,16.86-33.75,33.65c-4,4-6.72,3.94-10.67,0-3.56-3.56-7.15-7.11-10.71-10.67-3-3-3-6.21-.07-9.13C29.61,106.23,41,94.81,52.5,83.49a4.12,4.12,0,0,0,1.25-4.91,38.12,38.12,0,0,1,27.36-49,38.65,38.65,0,0,1,21,1A15.08,15.08,0,0,1,104.05,31.56Z"/><rect class="cls-2" width="150" height="150"/></g></g></svg>