<svg xmlns="http://www.w3.org/2000/svg" viewBox="0 0 150 150"><defs><style>.cls-1{fill:#d81324;}.cls-2{fill:none;}</style></defs><g id="Layer_2" data-name="Layer 2"><g id="Layer_1-2" data-name="Layer 1"><path class="cls-1" d="M129.59,127.11c0,4.13.08,7.76-.08,11.39a2.62,2.62,0,0,1-1.7,1.75,16.8,16.8,0,0,1-3.83.11q-49.44,0-98.88.06c-2.82,0-3.76-.78-3.73-3.66a116.55,116.55,0,0,0-.75-13.2,3.93,3.93,0,0,0-2-2.56c-4.11-2-6-5.53-7.06-9.66q-2-8.3-3.65-16.67a10,10,0,0,1,2.1-8.6c1.91-2.27,2.28-4.8,2.55-7.61C13.4,69.87,14,61.2,15.73,52.78c1.33-6.37,6.39-10.36,12.73-11.86,17.6-4.18,35.29-8,52.89-12.16a19.44,19.44,0,0,1,21.54,8.94c4,6.91,8.23,13.65,12.48,20.38a7.36,7.36,0,0,0,3,2.56,11.19,11.19,0,0,1,6.46,7.93c1.51,6.31,3.3,12.59,4.23,19,.37,2.55-.77,5.61-2,8a6.83,6.83,0,0,0-.93,5.21c.29,1.24.58,2.48.83,3.73.8,4.11-.51,6.39-4.49,7.69-1.77.57-3.59,1-5.41,1.46-3.46.77-6.42-1.32-7.35-5.12-1.51-6.13-1-5.48-6.66-4.19q-31.35,7.2-62.73,14.23c-1.84.41-2.21,1.39-1.92,3a23.39,23.39,0,0,0,.88,4A3,3,0,0,0,41,127.05a7,7,0,0,0,2.34.07h86.28Zm-103.83-48L102,61.69C98.52,56,95.48,51,92.42,46c-2.69-4.41-4.17-5.07-9.3-3.91-16.88,3.81-33.78,7.57-50.61,11.6-1.69.41-4,2.32-4.27,3.83C27.1,64.34,26.59,71.3,25.76,79.08Zm4.85,11.28a9.15,9.15,0,0,0-9.31,9.06,9.31,9.31,0,0,0,9,9.13,9.27,9.27,0,0,0,9.22-9.17A8.85,8.85,0,0,0,30.61,90.36Zm84.79-8a9.21,9.21,0,0,0-8.87-9.14,9,9,0,1,0,8.87,9.14Z"/><path class="cls-1" d="M129.73,29.39l13.21,6.41L129.7,42.1l12.42,15.78-.3.57c-1.61-.47-3.24-.89-4.83-1.41-3.65-1.19-7.34-2.26-10.88-3.71a9.59,9.59,0,0,1-4.32-3.21c-4.56-6.88-8.79-14-13.27-20.91-1.56-2.41-2.42-4.71-1.78-7.68,1.06-4.86,1.74-9.81,2.71-15.53,1,1.2,1.67,1.83,2.18,2.54,1.79,2.47,3.62,4.92,5.27,7.49,1.33,2.08,2.55,2.68,5,1.22C127.32,14,133,11,138.6,7.91c.93-.5,1.87-1,2.81-1.46l.74.58Z"/><rect class="cls-2" width="150" height="150"/></g></g></svg>