<svg xmlns="http://www.w3.org/2000/svg" viewBox="0 0 150 150"><defs><style>.cls-1{fill:#d81324;}.cls-2{fill:none;}</style></defs><g id="Layer_2" data-name="Layer 2"><g id="Layer_1-2" data-name="Layer 1"><path class="cls-1" d="M73.75,130.3H40.14c-4.27,0-4.24,0-4.31,4.17a18.18,18.18,0,0,1-.4,3.83c-.55,2.31-1.93,4.06-4.41,4.26a51.35,51.35,0,0,1-8.5.14,6.16,6.16,0,0,1-5.64-6.07,25.4,25.4,0,0,1,0-2.76c.15-3,.11-5.75-2.89-7.95-2.49-1.82-3.25-5-3.27-8.19,0-6.44-.1-12.89,0-19.33A12.39,12.39,0,0,1,16.49,88a8.16,8.16,0,0,0,2.88-3.69c2.55-7.27,4.88-14.61,7.27-21.94,3.11-9.54,9.49-14.19,19.5-14.19,18.28,0,36.56.19,54.83-.07,10.18-.15,17.29,5.4,20.24,14.88,2.24,7.19,4.53,14.36,7,21.48A8.15,8.15,0,0,0,131,88c3.64,2.8,5.89,6.22,5.86,11q-.06,9.12,0,18.23a13.5,13.5,0,0,1-4.52,10.27,6.89,6.89,0,0,0-1.63,3.7,47.88,47.88,0,0,0-.08,5.23c-.2,3.9-2.54,6.3-6.42,6.52a51.05,51.05,0,0,1-6.06,0c-4-.26-6.29-2.71-6.47-6.77-.25-5.8-.25-5.8-5.94-5.8ZM32.08,86h83.56c-2.47-7.37-4.79-14.3-7.15-21.23-1-2.91-3.16-4.14-6.11-4.14q-28.53,0-57,0c-3.5,0-5.45,1.46-6.6,4.75s-2.22,6.43-3.27,9.67C34.32,78.61,33.26,82.19,32.08,86Zm92.3,22.33a9.92,9.92,0,0,0-9.47-9.9,9.76,9.76,0,0,0-9.57,9.46c-.06,5.78,3.81,9.76,9.53,9.8A9.37,9.37,0,0,0,124.38,108.33Zm-82.2,0c.54-4.82-3.57-9.56-9.34-9.88-5.06-.28-9.69,4.51-9.68,9.67a9.41,9.41,0,0,0,9.62,9.54A9.11,9.11,0,0,0,42.18,108.34Z"/><path class="cls-1" d="M136.82,50.16c-4.44-1.43-8.34-2.64-12.2-3.93C108.48,40.82,92.36,35.35,76.2,30a7.46,7.46,0,0,0-4.53.1C52.29,37.1,33,44.19,13.6,51.25c-.74.27-1.52.43-2.8.79,0-4.29-.08-8.19.09-12.08,0-.58,1.17-1.35,1.94-1.63q18.92-7,37.87-13.88c6.19-2.25,12.43-4.35,18.54-6.79,3.23-1.29,6.14-1,9.31.09q28,9.42,56,18.59a2.8,2.8,0,0,1,2.27,3.17C136.77,42.88,136.82,46.25,136.82,50.16Z"/><rect class="cls-2" width="150" height="150"/></g></g></svg>