<svg xmlns="http://www.w3.org/2000/svg" viewBox="0 0 150 150"><defs><style>.cls-1{fill:#d81324;}.cls-2{fill:none;}</style></defs><g id="Layer_2" data-name="Layer 2"><g id="Layer_1-2" data-name="Layer 1"><path class="cls-1" d="M75.25,121.6c-11.58,0-23.16.08-34.73,0-2.84,0-3.79.91-3.6,3.67s.07,5.54,0,8.3c-.07,4.78-2.29,7.08-7.09,7.32a51.66,51.66,0,0,1-5.28,0c-4.21-.22-6.61-2.68-6.68-6.89s0-8.13-.09-12.19a3.7,3.7,0,0,0-1.17-2.47,13.65,13.65,0,0,1-5.07-11.16c.09-9.88.06-19.76,0-29.64,0-5.21,2.07-9,6.41-12.11,1.81-1.3,2.68-4.2,3.5-6.55C23.9,53,26,46,28.35,39.15A18.59,18.59,0,0,1,45.51,26.9q29.45-.06,58.9,0a18.18,18.18,0,0,1,17.41,11.84c2.88,7.88,5.38,15.89,8,23.86a8,8,0,0,0,3.52,4.66,11.53,11.53,0,0,1,5.45,10c.1,10.62,0,21.24,0,31.86a11.5,11.5,0,0,1-4.43,9.45,4.61,4.61,0,0,0-1.86,4.25c.1,3.6.05,7.2,0,10.81,0,4.45-2.27,6.86-6.68,7.16-1.75.11-3.52.08-5.28,0-4.79-.16-7-2.38-7.11-7.24-.08-3-.17-5.92,0-8.86.15-2.48-.82-3.19-3.21-3.18-11.66.09-23.33,0-35,0ZM126,77.41c-.83-.06-1.46-.15-2.09-.15q-48.6,0-97.21-.05c-2.21,0-2.6.83-2.58,2.78.08,8.67,0,17.35,0,26,0,3.55,0,3.56,3.71,3.56h94.71c1.09,0,2.17-.1,3.42-.15ZM75.21,65.19c13,0,25.9,0,38.85,0,2.93,0,3.26-.5,2.36-3.27-1.77-5.42-3.53-10.83-5.33-16.24-1.72-5.2-3.39-6.46-8.88-6.47q-27,0-54.11,0c-5.33,0-7.18,1.48-8.83,6.6S36,56.14,34.21,61.29c-1.15,3.4-.88,3.89,2.7,3.89Q56.07,65.21,75.21,65.19Z"/><path class="cls-1" d="M40.28,84.11a9.27,9.27,0,0,1,9.33,9.27,9.58,9.58,0,0,1-9.9,9.4,9.7,9.7,0,0,1-9-9.41A9.21,9.21,0,0,1,40.28,84.11Z"/><path class="cls-1" d="M110.18,84.13c5.64,0,9.38,3.82,9.37,9.65,0,4.83-4.14,8.67-9,9s-9.56-4-9.82-9.23S104.88,84.15,110.18,84.13Z"/><rect class="cls-2" width="150" height="150"/></g></g></svg>