<svg xmlns="http://www.w3.org/2000/svg" viewBox="0 0 150 150"><defs><style>.cls-1{fill:#d81324;}.cls-2{fill:none;}</style></defs><g id="Layer_2" data-name="Layer 2"><g id="Layer_1-2" data-name="Layer 1"><path class="cls-1" d="M74.8,46.49c9.11,0,18.23,0,27.34,0s15.44,4.72,18.28,13.27c2.45,7.35,4.83,14.74,7.38,22.06a7.21,7.21,0,0,0,2.45,3.2c3.74,2.71,5.84,6.2,5.85,10.85,0,5.9,0,11.79,0,17.69a12.94,12.94,0,0,1-4.55,9.89,5.44,5.44,0,0,0-1.43,3.12c-.24,1.85,0,3.75-.1,5.62a6,6,0,0,1-5.87,6.11,48.7,48.7,0,0,1-6.16,0c-4-.22-6.1-2.38-6.34-6.45-.34-5.73-.34-5.73-6-5.73H41.6c-3.74,0-3.74,0-3.76,3.66a24,24,0,0,1-.08,2.94,5.83,5.83,0,0,1-5.56,5.49,42.44,42.44,0,0,1-7,0,6,6,0,0,1-5.79-5.89,15.87,15.87,0,0,1,0-2.67c.24-3-.06-5.58-2.81-7.71-2.38-1.85-3.24-4.85-3.25-7.92,0-6.34-.12-12.69,0-19a11.87,11.87,0,0,1,5.73-10,6.86,6.86,0,0,0,2.58-3.14c2.66-7.65,5.12-15.37,7.68-23a17.88,17.88,0,0,1,17-12.36C55.86,46.46,65.33,46.49,74.8,46.49ZM115.51,83.3c-2.57-7.6-4.74-14.75-7.51-21.65-.59-1.48-3.36-2.93-5.15-2.95-18.67-.22-37.35-.15-56-.12a5.67,5.67,0,0,0-5.91,4.1c-1.78,5.33-3.57,10.65-5.32,16-.48,1.46-.82,3-1.27,4.63ZM44,104.87a9.5,9.5,0,0,0-9.1-9.65c-4.86-.15-9.45,4.42-9.45,9.41a9.1,9.1,0,0,0,9.08,9.28A9,9,0,0,0,44,104.87Zm79.89-.32a9.57,9.57,0,0,0-9.19-9.32c-5-.1-9.35,4.46-9.32,9.72s4.15,9.06,9.58,9A9,9,0,0,0,123.92,104.55Z"/><path class="cls-1" d="M38,27.72c.07-4,4.18-7.76,8.26-11.52a1.72,1.72,0,0,1,1.7.05c3.92,3.78,8,7.5,8.16,13.56.15,5.72-3.79,10.15-9,10.17S37.93,35.72,38,27.72Z"/><path class="cls-1" d="M102.39,40c-5.46,0-9.67-5-9.08-10.9.55-5.6,4.33-9.2,8.09-12.76a1.93,1.93,0,0,1,1.89,0c3.9,3.68,7.85,7.36,8.17,13.28C111.78,35.32,107.77,40,102.39,40Z"/><path class="cls-1" d="M65.86,31c-.29-7.22,4-10.89,8-14.74a2,2,0,0,1,1.9.09c4,3.76,8,7.52,8.09,13.57.1,5.64-3.77,10-8.87,10.08A8.76,8.76,0,0,1,65.86,31Z"/><rect class="cls-2" width="150" height="150"/></g></g></svg>